<?xml version="1.0" encoding="utf-8"?>
<!-- Generator: Adobe Illustrator 23.0.3, SVG Export Plug-In . SVG Version: 6.00 Build 0)  -->
<svg version="1.1" id="Layer_1" xmlns="http://www.w3.org/2000/svg" xmlns:xlink="http://www.w3.org/1999/xlink" x="0px" y="0px"
	 viewBox="0 0 22.8 22.1" style="enable-background:new 0 0 22.8 22.1;" xml:space="preserve">
<style type="text/css">
	.st0{fill:#FFFFFF;}
	.st1{fill:#83CBCD;}
</style>
<title>placement-icon-white</title>
<path class="st0" d="M22.6,11.3c1-5.1-2.4-10.1-7.5-11.1C14.5,0.1,13.9,0,13.4,0h-0.3C9.3,0.1,5.9,2,3,4.4C1.4,5.7-0.1,7.5,0,9.5
	c0.1,1.8,1.5,3.3,2.3,4.8c1.1,2,1.6,4.5,3.2,6.1c1.1,1,2.5,1.6,4,1.7c4.3,0.3,8.4-1.8,10.7-5.4C21.4,15.1,22.2,13.2,22.6,11.3"/>
<path class="st1" d="M17.5,12.6C17.5,12.6,17.5,12.7,17.5,12.6l-1.3,0.1c0,0-0.1,0-0.1-0.1v-1.2c0,0,0-0.1,0.1-0.1h1.3
	c0,0,0.1,0,0.1,0.1L17.5,12.6z M17.5,14.4C17.5,14.5,17.5,14.5,17.5,14.4l-1.3,0.1c0,0-0.1,0-0.1-0.1v-1.2c0,0,0-0.1,0.1-0.1h1.3
	c0,0,0.1,0,0.1,0.1L17.5,14.4z M13.9,8.5C13.9,8.5,13.9,8.6,13.9,8.5l-1.3,0.1c0,0-0.1,0-0.1-0.1V7.3c0,0,0,0,0.1,0h1.2h0.1
	L13.9,8.5z M13.9,10.5C13.9,10.5,13.9,10.6,13.9,10.5C13.9,10.6,13.9,10.6,13.9,10.5l-1.3,0.1c0,0-0.1,0-0.1-0.1V9.3
	c0,0,0-0.1,0.1-0.1h1.2c0,0,0.1,0,0.1,0.1L13.9,10.5z M13.9,12.5C13.9,12.5,13.9,12.6,13.9,12.5C13.9,12.6,13.9,12.6,13.9,12.5
	l-1.3,0.1c0,0-0.1,0-0.1-0.1v-1.2c0,0,0-0.1,0.1-0.1h1.2c0,0,0.1,0,0.1,0.1L13.9,12.5z M10.5,10.4C10.5,10.4,10.5,10.5,10.5,10.4
	L10.5,10.4l-1.3,0.1c0,0-0.1,0-0.1-0.1v0V9.2c0,0,0-0.1,0-0.1c0,0,0,0,0,0h1.2c0,0,0.1,0,0.1,0.1v0L10.5,10.4z M10.5,12.4
	C10.5,12.4,10.5,12.5,10.5,12.4L10.5,12.4l-1.3,0.1c0,0-0.1,0-0.1-0.1v0v-1.2c0,0,0,0,0.1,0h1.2c0,0,0,0,0.1,0L10.5,12.4z
	 M10.5,14.4C10.5,14.4,10.5,14.5,10.5,14.4L10.5,14.4l-1.3,0.1c0,0-0.1,0-0.1,0c0,0,0,0,0,0v-1.2c0,0,0-0.1,0.1-0.1h0h1.2
	c0,0,0.1,0,0.1,0.1v0L10.5,14.4z M7.8,10.4C7.8,10.4,7.7,10.5,7.8,10.4L7.8,10.4l-1.3,0.1c0,0-0.1,0-0.1-0.1v0V9.2c0,0,0-0.1,0-0.1
	c0,0,0,0,0,0h1.2c0,0,0.1,0,0.1,0.1v0L7.8,10.4z M7.8,12.4C7.8,12.4,7.7,12.5,7.8,12.4L7.8,12.4l-1.3,0.1c0,0-0.1,0-0.1-0.1v0v-1.2
	c0,0,0,0,0.1,0h1.2c0,0,0,0,0.1,0L7.8,12.4z M7.8,14.4C7.8,14.4,7.7,14.5,7.8,14.4L7.8,14.4l-1.3,0.1c0,0-0.1,0-0.1,0c0,0,0,0,0,0
	v-1.2c0,0,0-0.1,0.1-0.1h0h1.2c0,0,0.1,0,0.1,0.1v0L7.8,14.4z M18.4,10.2h-3c-0.1,0-0.2-0.1-0.2-0.2l0,0V6.3c0-0.1-0.1-0.2-0.2-0.2
	c0,0,0,0,0,0h-3.5c-0.1,0-0.2,0.1-0.2,0.2v1.6c0,0.1-0.1,0.2-0.2,0.2H10C9.9,8.1,9.9,8,9.9,7.9V6.3c0-0.1-0.1-0.2-0.2-0.2H9.1
	C9,6.1,8.9,6.2,8.9,6.3c0,0,0,0,0,0V8c0,0.1-0.1,0.2-0.2,0.2H7.6C7.5,8.2,7.4,8.1,7.4,8V6.3c0-0.1-0.1-0.2-0.2-0.2c0,0,0,0,0,0H6.7
	c-0.1,0-0.2,0.1-0.2,0.2V8c0,0.1-0.1,0.2-0.2,0.2H5.2v8.3c0,0.1,0.1,0.2,0.2,0.2c0,0,0,0,0,0h13c0.1,0,0.2-0.1,0.2-0.2c0,0,0,0,0,0
	v-6c0-0.1-0.1-0.2-0.2-0.2"/>
</svg>
