<?xml version="1.0" encoding="utf-8"?>
<!-- Generator: Adobe Illustrator 23.0.3, SVG Export Plug-In . SVG Version: 6.00 Build 0)  -->
<svg version="1.1" id="Layer_1" xmlns="http://www.w3.org/2000/svg" xmlns:xlink="http://www.w3.org/1999/xlink" x="0px" y="0px"
	 viewBox="0 0 477.3 485.3" style="enable-background:new 0 0 477.3 485.3;" xml:space="preserve">
<style type="text/css">
	.st0{fill:none;stroke:#FFFFFF;stroke-width:4;stroke-miterlimit:10;}
	.st1{enable-background:new    ;}
	.st2{fill:#FFFFFF;}
</style>
<title>Asset 1</title>
<g>
	<g id="Layer_1-2">
		<path class="st0" d="M418.4,100.7C346.5,2.8,203-8.7,120,80c-1.3,1.4-2.6,2.8-3.9,4.3c-50.8,57.4-71.9,135.9-76.3,212.4
			c-2.4,41.8,2.2,89.2,34.3,116c28.5,23.9,69.3,23.8,105.4,33c46,11.8,89.1,40.4,136.5,37.4c30.4-1.9,58.8-17,81.9-36.8
			c65.4-56.2,91.3-151.7,70.4-235.4C458,169.6,441.7,132.3,418.4,100.7z"/>
		<path class="st0" d="M420.2,121.2C373.7,11,238.9-33,139.1,33c-1.6,1-3.1,2.1-4.7,3.2c-61.8,43.3-100,113.7-121.8,186
			c-11.9,39.4-18.4,85.8,6.2,119c21.9,29.4,60.9,38.6,93.4,55.7c41.4,21.8,76,59.1,122.1,67.1c29.6,5.2,60.2-2.8,86.9-16.5
			c75.5-38.8,122.2-124.4,121.4-209.3C442.2,196.4,435.2,156.8,420.2,121.2z"/>
		<path class="st0" d="M439.1,278.1c20-109.6-62.8-212.6-174.2-212c-1.8,0-3.5,0-5.3,0.1c-70.3,2.3-135.9,37.7-189.7,83
			c-29.4,24.7-58.1,57.5-55.8,95.8c2,34.1,27.8,61.2,44.4,91c21.2,38.1,29.2,84.8,61,114.6c20.4,19.1,48.4,28.5,76.1,31.4
			c78.7,8.3,158.7-34.7,201.4-101.3C418,347.9,432.7,313.5,439.1,278.1z"/>
		<g class="st1">
			<path class="st2" d="M117.9,259.2c-4.2,0-8.7-0.9-12.3-2.5l0.4-7.1c3.3,1.8,8,3.2,11.5,3.2c3.9,0,6.9-1.4,6.9-4.6
				c0-7.8-19.2-3.2-19.2-17.6c0-7.1,5.2-11.8,14.8-11.8c3.5,0,7.5,0.9,9.9,1.7l-0.3,6.5c-2.9-1.1-6.1-1.9-9.1-1.9
				c-4.6,0-7.1,1.7-7.1,4.5c0,7.5,19.2,3.1,19.2,17.6C132.7,255.6,126.2,259.2,117.9,259.2z"/>
			<path class="st2" d="M173.4,225.6h-11.1v33h-8.6v-33h-11.1v-6h30.9V225.6z"/>
			<path class="st2" d="M215.6,244.2c0,4.4-0.7,7.6-2.8,10.2c-2.5,3.1-6.6,4.8-12.6,4.8c-5.4,0-9.5-1.4-12-4.1
				c-2.3-2.6-3.1-5.6-3.1-10.6v-24.9h8.6v24.5c0,3.1,0.4,4.9,1.4,6.3c1,1.4,2.8,2.2,5.3,2.2c2.5,0,4.2-0.8,5.2-2
				c1.3-1.6,1.5-3.8,1.5-6.3v-24.6h8.4V244.2z"/>
			<path class="st2" d="M253.9,256.8c-3.1,1.2-6.8,1.8-11.1,1.8h-12v-33h-3.8v-6h15.5c6.3,0,11,0.9,14.4,3.1c4.4,3,6.5,8.2,6.5,16.5
				C263.6,248.9,260.1,254.3,253.9,256.8z M250.7,227.5c-1.8-1.4-4.6-1.9-8.1-1.9h-3.1v26.9h3.9c3,0,5.5-0.6,7.1-1.8
				c3-2.2,3.9-6.2,3.9-12S253.4,229.5,250.7,227.5z"/>
			<path class="st2" d="M302.3,252.5l-0.6,6.1h-25.5v-39h24.6v6h-16.1v10.2h13.1v6h-13.1v10.7H302.3z"/>
			<path class="st2" d="M346.7,258.6H341l-16.7-21.7c-0.8-1-1.5-2.3-1.8-3.3v25h-7.2v-39h5.5l16.8,21.7c1,1.2,1.7,2.3,2,3.3v-25h7.2
				V258.6z"/>
			<path class="st2" d="M389.3,225.6h-11.1v33h-8.6v-33h-11.1v-6h30.9V225.6z"/>
		</g>
		<g class="st1">
			<path class="st2" d="M133,271.9l-1.2,6h-16.3l-2.2,10.2h13.3l-1.2,5.9h-13.3l-3.6,16.9h-8.6l8.3-39H133z"/>
			<path class="st2" d="M176.9,271.9l-5,23.3c-1.1,5.3-2.5,8.7-5.1,11.4c-3,3.1-7.4,4.8-13.1,4.8c-7,0-13-3-13-10.7
				c0-1.3,0.4-3.8,0.9-6.3l4.7-22.5h8.6l-5.2,24.3c-0.2,1.2-0.4,2.8-0.4,3.8c0,3.4,2.3,4.9,5.5,4.9c2.4,0,4.5-0.9,5.9-2.5
				c1.2-1.4,2.1-3.6,2.6-5.9l5.2-24.6H176.9z"/>
			<path class="st2" d="M220.2,271.9l-1.3,6h-11.6l-7,33h-8.6l7-33H187l1.3-6H220.2z"/>
			<path class="st2" d="M262.3,271.9l-5,23.3c-1.1,5.3-2.5,8.7-5.1,11.4c-3,3.1-7.4,4.8-13.1,4.8c-7,0-13-3-13-10.7
				c0-1.3,0.4-3.8,0.9-6.3l4.7-22.5h8.6l-5.2,24.3c-0.2,1.2-0.4,2.8-0.4,3.8c0,3.4,2.3,4.9,5.5,4.9c2.4,0,4.5-0.9,5.9-2.5
				c1.2-1.4,2.1-3.6,2.6-5.9l5.2-24.6H262.3z"/>
			<path class="st2" d="M302.3,291.1c-1.6,2-3.8,3.4-6.3,4.5l3.2,8.1c0.6,1.4,1.4,2.1,2.8,2.1c0.9,0,2.3-0.5,3.1-0.9l-1,5.2
				c-1.2,0.7-3.2,1.4-5.3,1.4c-4.5,0-6.5-2.2-8.4-6.7l-3.1-7.7H281l-2.9,13.9h-8.6l7-33h-4.3l1.2-6h17.1c5.2,0,8.9,0.8,11.4,2.6
				c2.2,1.6,3.4,4.1,3.4,7.3C305.3,285.4,304.2,288.6,302.3,291.1z M294.8,278.9c-1.2-0.8-2.7-1-4.7-1h-5l-2.9,13.7h4.5
				c3.2,0,5.5-0.8,7-2.2c1.8-1.6,2.8-4,2.8-6.8C296.5,280.9,295.9,279.7,294.8,278.9z"/>
			<path class="st2" d="M347.9,271.9l-1.2,6h-16.3l-2.2,10.2h13.3l-1.2,5.9H327l-2.3,11h17.7l-1.2,6h-26.2l8.3-39H347.9z"/>
			<path class="st2" d="M384.2,279.3c-2.5-1.3-5.7-2-8.8-2c-4.5,0-7.9,2-7.9,5.2c0,2.6,2.9,3.9,6.2,5.4c5.2,2.3,9.5,4.7,9.5,10.6
				c0,9.6-8.6,12.9-17.1,12.9c-3.9,0-8.6-1-11.9-2.8l1.4-6.7c2.8,2.2,7.3,3.5,10.9,3.5c4.6,0,8-2.2,8-5.5c0-2.5-2.5-3.6-6-5.1
				c-5.7-2.3-9.8-4.9-9.8-10.8c0-7.6,7-12.7,16.8-12.7c3.4,0,7.6,0.9,9.9,1.8L384.2,279.3z"/>
		</g>
	</g>
</g>
</svg>
